<svg width="56" height="10" viewBox="0 0 56 10" fill="none" xmlns="http://www.w3.org/2000/svg">
<path d="M0.744141 9V0.544922H2.25586V7.72852H6.09375V9H0.744141ZM9.66211 9.12305C7.83398 9.12305 6.65625 7.9043 6.65625 5.89453V5.88281C6.65625 3.89062 7.85156 2.66016 9.65625 2.66016C11.4668 2.66016 12.668 3.87891 12.668 5.88281V5.89453C12.668 7.91016 11.4844 9.12305 9.66211 9.12305ZM9.66797 7.94531C10.5879 7.94531 11.1797 7.19531 11.1797 5.89453V5.88281C11.1797 4.58789 10.582 3.84375 9.65625 3.84375C8.74805 3.84375 8.14453 4.59375 8.14453 5.88281V5.89453C8.14453 7.20117 8.73633 7.94531 9.66797 7.94531ZM16.3477 9.12305C14.502 9.12305 13.3477 7.88086 13.3477 5.88867V5.88281C13.3477 3.90234 14.5195 2.66016 16.3301 2.66016C17.9648 2.66016 18.9844 3.69727 19.0723 4.93945L19.0781 4.98633H17.7012L17.6895 4.93359C17.5664 4.33008 17.1211 3.84375 16.3477 3.84375C15.4277 3.84375 14.8359 4.62305 14.8359 5.89453V5.90039C14.8359 7.19531 15.4336 7.94531 16.3535 7.94531C17.0918 7.94531 17.5605 7.50586 17.6953 6.85547L17.707 6.80273H19.084L19.0781 6.84375C18.9668 8.13867 17.918 9.12305 16.3477 9.12305ZM20.0215 9V0.544922H21.4805V5.36719H21.5098L23.8301 2.78906H25.5176L23.0566 5.46094L25.6172 9H23.9355L21.9727 6.32812L21.4805 6.84375V9H20.0215ZM28.6172 9.12305C26.7539 9.12305 25.6289 7.88672 25.6289 5.91211V5.90625C25.6289 3.94922 26.7715 2.66016 28.5469 2.66016C30.3223 2.66016 31.4238 3.9082 31.4238 5.7832V6.25195H27.0762C27.0996 7.3418 27.6973 7.98633 28.6465 7.98633C29.373 7.98633 29.8477 7.59961 29.9883 7.18359L30 7.14258H31.3652L31.3477 7.20703C31.1543 8.16211 30.2402 9.12305 28.6172 9.12305ZM28.5645 3.80273C27.791 3.80273 27.2109 4.32422 27.0938 5.2793H30.0059C29.9004 4.29492 29.3379 3.80273 28.5645 3.80273ZM32.3672 9V2.78906H33.8262V3.86133H33.8555C34.0488 3.11133 34.5645 2.66016 35.2793 2.66016C35.4609 2.66016 35.6309 2.68945 35.7422 2.71875V4.03711C35.6191 3.99023 35.3965 3.95508 35.1504 3.95508C34.3242 3.95508 33.8262 4.47656 33.8262 5.39648V9H32.3672ZM39.041 9V0.544922H42.2988C44.0098 0.544922 45.1758 1.67578 45.1758 3.36914V3.38086C45.1758 5.06836 44.0098 6.20508 42.2988 6.20508H40.5527V9H39.041ZM41.9238 1.78125H40.5527V4.98633H41.9238C43.0078 4.98633 43.6406 4.40039 43.6406 3.38672V3.375C43.6406 2.36133 43.0078 1.78125 41.9238 1.78125ZM46.1367 9V2.78906H47.5957V3.86133H47.625C47.8184 3.11133 48.334 2.66016 49.0488 2.66016C49.2305 2.66016 49.4004 2.68945 49.5117 2.71875V4.03711C49.3887 3.99023 49.166 3.95508 48.9199 3.95508C48.0938 3.95508 47.5957 4.47656 47.5957 5.39648V9H46.1367ZM52.7754 9.12305C50.9473 9.12305 49.7695 7.9043 49.7695 5.89453V5.88281C49.7695 3.89062 50.9648 2.66016 52.7695 2.66016C54.5801 2.66016 55.7812 3.87891 55.7812 5.88281V5.89453C55.7812 7.91016 54.5977 9.12305 52.7754 9.12305ZM52.7812 7.94531C53.7012 7.94531 54.293 7.19531 54.293 5.89453V5.88281C54.293 4.58789 53.6953 3.84375 52.7695 3.84375C51.8613 3.84375 51.2578 4.59375 51.2578 5.88281V5.89453C51.2578 7.20117 51.8496 7.94531 52.7812 7.94531Z" fill="url(#paint0_radial_76_415)"/>
<defs>
<radialGradient id="paint0_radial_76_415" cx="0" cy="0" r="1" gradientUnits="userSpaceOnUse" gradientTransform="translate(57 0.500049) rotate(168.593) scale(58.1485 867.014)">
<stop offset="0.127955" stop-color="#EA994F"/>
<stop offset="0.350166" stop-color="#E46F90"/>
<stop offset="0.562436" stop-color="#CC6DEB"/>
<stop offset="0.832314" stop-color="#65B9F9"/>
</radialGradient>
</defs>
</svg>
