<svg width="22" height="22" viewBox="0 0 22 22" fill="none" xmlns="http://www.w3.org/2000/svg">
<path d="M13.75 10.3438L9.9 15.1562L8.25 13.2278" stroke="black" stroke-linecap="round" stroke-linejoin="round"/>
<path d="M6.875 6.5625V5.1875C6.875 4.09348 7.3096 3.04427 8.08318 2.27068C8.85677 1.4971 9.90598 1.0625 11 1.0625C12.094 1.0625 13.1432 1.4971 13.9168 2.27068C14.6904 3.04427 15.125 4.09348 15.125 5.1875V6.5625M3.4375 6.5625C3.25516 6.5625 3.0803 6.63493 2.95136 6.76386C2.82243 6.8928 2.75 7.06766 2.75 7.25V16.5312C2.75 17.8306 3.85688 18.9375 5.15625 18.9375H16.8438C18.1431 18.9375 19.25 17.8843 19.25 16.585V7.25C19.25 7.06766 19.1776 6.8928 19.0486 6.76386C18.9197 6.63493 18.7448 6.5625 18.5625 6.5625H3.4375Z" stroke="black" stroke-linecap="round" stroke-linejoin="round"/>
</svg>
