<svg width="28" height="28" viewBox="0 0 28 28" fill="none" xmlns="http://www.w3.org/2000/svg">
<path d="M14 0C12.1615 -2.1924e-08 10.341 0.362121 8.64243 1.06569C6.94387 1.76925 5.40053 2.80048 4.1005 4.10051C2.80048 5.40053 1.76925 6.94387 1.06569 8.64243C0.362121 10.341 -5.84397e-08 12.1615 0 14C5.84397e-08 15.8385 0.362121 17.659 1.06569 19.3576C1.76925 21.0561 2.80049 22.5995 4.10051 23.8995C5.40053 25.1995 6.94387 26.2307 8.64243 26.9343C10.341 27.6379 12.1615 28 14 28L14 14V0Z" fill="#AE9BD2"/>
<path d="M14 28C15.8385 28 17.659 27.6379 19.3576 26.9343C21.0561 26.2307 22.5995 25.1995 23.8995 23.8995C25.1995 22.5995 26.2307 21.0561 26.9343 19.3576C27.6379 17.659 28 15.8385 28 14C28 12.1615 27.6379 10.341 26.9343 8.64243C26.2307 6.94387 25.1995 5.40052 23.8995 4.1005C22.5995 2.80048 21.0561 1.76925 19.3576 1.06569C17.659 0.36212 15.8385 -5.18697e-07 14 0L14 14L14 28Z" fill="#77CF6F"/>
</svg>
